<?xml version="1.0" encoding="utf-8" standalone="no"?>
<!DOCTYPE svg PUBLIC "-//W3C//DTD SVG 1.1//EN"
  "http://www.w3.org/Graphics/SVG/1.1/DTD/svg11.dtd">
<!-- Created with matplotlib (https://matplotlib.org/) -->
<svg height="359.848047pt" version="1.1" viewBox="0 0 1078.664231 359.848047" width="1078.664231pt" xmlns="http://www.w3.org/2000/svg" xmlns:xlink="http://www.w3.org/1999/xlink">
 <defs>
  <style type="text/css">
*{stroke-linecap:butt;stroke-linejoin:round;white-space:pre;}
  </style>
 </defs>
 <g id="figure_1">
  <g id="patch_1">
   <path d="M 0 359.848047 
L 1078.664231 359.848047 
L 1078.664231 0 
L 0 0 
z
" style="fill:#ffffff;"/>
  </g>
  <g id="axes_1">
   <g id="patch_2">
    <path d="M 62.994703 306.097469 
L 357.623839 306.097469 
L 357.623839 25.509469 
L 62.994703 25.509469 
z
" style="fill:#eaeaf2;"/>
   </g>
   <g id="matplotlib.axis_1">
    <g id="xtick_1">
     <g id="line2d_1">
      <path clip-path="url(#p8793c9a856)" d="M 76.386937 306.097469 
L 76.386937 25.509469 
" style="fill:none;stroke:#ffffff;stroke-linecap:round;stroke-width:1.5;"/>
     </g>
     <g id="text_1">
      <!-- 6 -->
      <defs>
       <path d="M 33.015625 40.375 
Q 26.375 40.375 22.484375 35.828125 
Q 18.609375 31.296875 18.609375 23.390625 
Q 18.609375 15.53125 22.484375 10.953125 
Q 26.375 6.390625 33.015625 6.390625 
Q 39.65625 6.390625 43.53125 10.953125 
Q 47.40625 15.53125 47.40625 23.390625 
Q 47.40625 31.296875 43.53125 35.828125 
Q 39.65625 40.375 33.015625 40.375 
z
M 52.59375 71.296875 
L 52.59375 62.3125 
Q 48.875 64.0625 45.09375 64.984375 
Q 41.3125 65.921875 37.59375 65.921875 
Q 27.828125 65.921875 22.671875 59.328125 
Q 17.53125 52.734375 16.796875 39.40625 
Q 19.671875 43.65625 24.015625 45.921875 
Q 28.375 48.1875 33.59375 48.1875 
Q 44.578125 48.1875 50.953125 41.515625 
Q 57.328125 34.859375 57.328125 23.390625 
Q 57.328125 12.15625 50.6875 5.359375 
Q 44.046875 -1.421875 33.015625 -1.421875 
Q 20.359375 -1.421875 13.671875 8.265625 
Q 6.984375 17.96875 6.984375 36.375 
Q 6.984375 53.65625 15.1875 63.9375 
Q 23.390625 74.21875 37.203125 74.21875 
Q 40.921875 74.21875 44.703125 73.484375 
Q 48.484375 72.75 52.59375 71.296875 
z
" id="DejaVuSans-54"/>
      </defs>
      <g style="fill:#262626;" transform="translate(71.66278 329.881148)scale(0.1485 -0.1485)">
       <use xlink:href="#DejaVuSans-54"/>
      </g>
     </g>
    </g>
    <g id="xtick_2">
     <g id="line2d_2">
      <path clip-path="url(#p8793c9a856)" d="M 165.668493 306.097469 
L 165.668493 25.509469 
" style="fill:none;stroke:#ffffff;stroke-linecap:round;stroke-width:1.5;"/>
     </g>
     <g id="text_2">
      <!-- 60 -->
      <defs>
       <path d="M 31.78125 66.40625 
Q 24.171875 66.40625 20.328125 58.90625 
Q 16.5 51.421875 16.5 36.375 
Q 16.5 21.390625 20.328125 13.890625 
Q 24.171875 6.390625 31.78125 6.390625 
Q 39.453125 6.390625 43.28125 13.890625 
Q 47.125 21.390625 47.125 36.375 
Q 47.125 51.421875 43.28125 58.90625 
Q 39.453125 66.40625 31.78125 66.40625 
z
M 31.78125 74.21875 
Q 44.046875 74.21875 50.515625 64.515625 
Q 56.984375 54.828125 56.984375 36.375 
Q 56.984375 17.96875 50.515625 8.265625 
Q 44.046875 -1.421875 31.78125 -1.421875 
Q 19.53125 -1.421875 13.0625 8.265625 
Q 6.59375 17.96875 6.59375 36.375 
Q 6.59375 54.828125 13.0625 64.515625 
Q 19.53125 74.21875 31.78125 74.21875 
z
" id="DejaVuSans-48"/>
      </defs>
      <g style="fill:#262626;" transform="translate(156.220181 329.881148)scale(0.1485 -0.1485)">
       <use xlink:href="#DejaVuSans-54"/>
       <use x="63.623047" xlink:href="#DejaVuSans-48"/>
      </g>
     </g>
    </g>
    <g id="xtick_3">
     <g id="line2d_3">
      <path clip-path="url(#p8793c9a856)" d="M 254.95005 306.097469 
L 254.95005 25.509469 
" style="fill:none;stroke:#ffffff;stroke-linecap:round;stroke-width:1.5;"/>
     </g>
     <g id="text_3">
      <!-- 600 -->
      <g style="fill:#262626;" transform="translate(240.777581 329.881148)scale(0.1485 -0.1485)">
       <use xlink:href="#DejaVuSans-54"/>
       <use x="63.623047" xlink:href="#DejaVuSans-48"/>
       <use x="127.246094" xlink:href="#DejaVuSans-48"/>
      </g>
     </g>
    </g>
    <g id="xtick_4">
     <g id="line2d_4">
      <path clip-path="url(#p8793c9a856)" d="M 344.231606 306.097469 
L 344.231606 25.509469 
" style="fill:none;stroke:#ffffff;stroke-linecap:round;stroke-width:1.5;"/>
     </g>
     <g id="text_4">
      <!-- 6000 -->
      <g style="fill:#262626;" transform="translate(325.334981 329.881148)scale(0.1485 -0.1485)">
       <use xlink:href="#DejaVuSans-54"/>
       <use x="63.623047" xlink:href="#DejaVuSans-48"/>
       <use x="127.246094" xlink:href="#DejaVuSans-48"/>
       <use x="190.869141" xlink:href="#DejaVuSans-48"/>
      </g>
     </g>
    </g>
    <g id="xtick_5"/>
    <g id="xtick_6"/>
    <g id="xtick_7"/>
    <g id="xtick_8"/>
    <g id="xtick_9"/>
    <g id="xtick_10"/>
    <g id="xtick_11"/>
    <g id="xtick_12"/>
    <g id="xtick_13"/>
    <g id="xtick_14"/>
    <g id="xtick_15"/>
    <g id="xtick_16"/>
    <g id="xtick_17"/>
    <g id="xtick_18"/>
    <g id="xtick_19"/>
    <g id="xtick_20"/>
    <g id="xtick_21"/>
    <g id="xtick_22"/>
    <g id="xtick_23"/>
    <g id="xtick_24"/>
    <g id="xtick_25"/>
    <g id="xtick_26"/>
    <g id="xtick_27"/>
    <g id="xtick_28"/>
    <g id="text_5">
     <!-- Datapoints Per Class -->
     <defs>
      <path d="M 19.671875 64.796875 
L 19.671875 8.109375 
L 31.59375 8.109375 
Q 46.6875 8.109375 53.6875 14.9375 
Q 60.6875 21.78125 60.6875 36.53125 
Q 60.6875 51.171875 53.6875 57.984375 
Q 46.6875 64.796875 31.59375 64.796875 
z
M 9.8125 72.90625 
L 30.078125 72.90625 
Q 51.265625 72.90625 61.171875 64.09375 
Q 71.09375 55.28125 71.09375 36.53125 
Q 71.09375 17.671875 61.125 8.828125 
Q 51.171875 0 30.078125 0 
L 9.8125 0 
z
" id="DejaVuSans-68"/>
      <path d="M 34.28125 27.484375 
Q 23.390625 27.484375 19.1875 25 
Q 14.984375 22.515625 14.984375 16.5 
Q 14.984375 11.71875 18.140625 8.90625 
Q 21.296875 6.109375 26.703125 6.109375 
Q 34.1875 6.109375 38.703125 11.40625 
Q 43.21875 16.703125 43.21875 25.484375 
L 43.21875 27.484375 
z
M 52.203125 31.203125 
L 52.203125 0 
L 43.21875 0 
L 43.21875 8.296875 
Q 40.140625 3.328125 35.546875 0.953125 
Q 30.953125 -1.421875 24.3125 -1.421875 
Q 15.921875 -1.421875 10.953125 3.296875 
Q 6 8.015625 6 15.921875 
Q 6 25.140625 12.171875 29.828125 
Q 18.359375 34.515625 30.609375 34.515625 
L 43.21875 34.515625 
L 43.21875 35.40625 
Q 43.21875 41.609375 39.140625 45 
Q 35.0625 48.390625 27.6875 48.390625 
Q 23 48.390625 18.546875 47.265625 
Q 14.109375 46.140625 10.015625 43.890625 
L 10.015625 52.203125 
Q 14.9375 54.109375 19.578125 55.046875 
Q 24.21875 56 28.609375 56 
Q 40.484375 56 46.34375 49.84375 
Q 52.203125 43.703125 52.203125 31.203125 
z
" id="DejaVuSans-97"/>
      <path d="M 18.3125 70.21875 
L 18.3125 54.6875 
L 36.8125 54.6875 
L 36.8125 47.703125 
L 18.3125 47.703125 
L 18.3125 18.015625 
Q 18.3125 11.328125 20.140625 9.421875 
Q 21.96875 7.515625 27.59375 7.515625 
L 36.8125 7.515625 
L 36.8125 0 
L 27.59375 0 
Q 17.1875 0 13.234375 3.875 
Q 9.28125 7.765625 9.28125 18.015625 
L 9.28125 47.703125 
L 2.6875 47.703125 
L 2.6875 54.6875 
L 9.28125 54.6875 
L 9.28125 70.21875 
z
" id="DejaVuSans-116"/>
      <path d="M 18.109375 8.203125 
L 18.109375 -20.796875 
L 9.078125 -20.796875 
L 9.078125 54.6875 
L 18.109375 54.6875 
L 18.109375 46.390625 
Q 20.953125 51.265625 25.265625 53.625 
Q 29.59375 56 35.59375 56 
Q 45.5625 56 51.78125 48.09375 
Q 58.015625 40.1875 58.015625 27.296875 
Q 58.015625 14.40625 51.78125 6.484375 
Q 45.5625 -1.421875 35.59375 -1.421875 
Q 29.59375 -1.421875 25.265625 0.953125 
Q 20.953125 3.328125 18.109375 8.203125 
z
M 48.6875 27.296875 
Q 48.6875 37.203125 44.609375 42.84375 
Q 40.53125 48.484375 33.40625 48.484375 
Q 26.265625 48.484375 22.1875 42.84375 
Q 18.109375 37.203125 18.109375 27.296875 
Q 18.109375 17.390625 22.1875 11.75 
Q 26.265625 6.109375 33.40625 6.109375 
Q 40.53125 6.109375 44.609375 11.75 
Q 48.6875 17.390625 48.6875 27.296875 
z
" id="DejaVuSans-112"/>
      <path d="M 30.609375 48.390625 
Q 23.390625 48.390625 19.1875 42.75 
Q 14.984375 37.109375 14.984375 27.296875 
Q 14.984375 17.484375 19.15625 11.84375 
Q 23.34375 6.203125 30.609375 6.203125 
Q 37.796875 6.203125 41.984375 11.859375 
Q 46.1875 17.53125 46.1875 27.296875 
Q 46.1875 37.015625 41.984375 42.703125 
Q 37.796875 48.390625 30.609375 48.390625 
z
M 30.609375 56 
Q 42.328125 56 49.015625 48.375 
Q 55.71875 40.765625 55.71875 27.296875 
Q 55.71875 13.875 49.015625 6.21875 
Q 42.328125 -1.421875 30.609375 -1.421875 
Q 18.84375 -1.421875 12.171875 6.21875 
Q 5.515625 13.875 5.515625 27.296875 
Q 5.515625 40.765625 12.171875 48.375 
Q 18.84375 56 30.609375 56 
z
" id="DejaVuSans-111"/>
      <path d="M 9.421875 54.6875 
L 18.40625 54.6875 
L 18.40625 0 
L 9.421875 0 
z
M 9.421875 75.984375 
L 18.40625 75.984375 
L 18.40625 64.59375 
L 9.421875 64.59375 
z
" id="DejaVuSans-105"/>
      <path d="M 54.890625 33.015625 
L 54.890625 0 
L 45.90625 0 
L 45.90625 32.71875 
Q 45.90625 40.484375 42.875 44.328125 
Q 39.84375 48.1875 33.796875 48.1875 
Q 26.515625 48.1875 22.3125 43.546875 
Q 18.109375 38.921875 18.109375 30.90625 
L 18.109375 0 
L 9.078125 0 
L 9.078125 54.6875 
L 18.109375 54.6875 
L 18.109375 46.1875 
Q 21.34375 51.125 25.703125 53.5625 
Q 30.078125 56 35.796875 56 
Q 45.21875 56 50.046875 50.171875 
Q 54.890625 44.34375 54.890625 33.015625 
z
" id="DejaVuSans-110"/>
      <path d="M 44.28125 53.078125 
L 44.28125 44.578125 
Q 40.484375 46.53125 36.375 47.5 
Q 32.28125 48.484375 27.875 48.484375 
Q 21.1875 48.484375 17.84375 46.4375 
Q 14.5 44.390625 14.5 40.28125 
Q 14.5 37.15625 16.890625 35.375 
Q 19.28125 33.59375 26.515625 31.984375 
L 29.59375 31.296875 
Q 39.15625 29.25 43.1875 25.515625 
Q 47.21875 21.78125 47.21875 15.09375 
Q 47.21875 7.46875 41.1875 3.015625 
Q 35.15625 -1.421875 24.609375 -1.421875 
Q 20.21875 -1.421875 15.453125 -0.5625 
Q 10.6875 0.296875 5.421875 2 
L 5.421875 11.28125 
Q 10.40625 8.6875 15.234375 7.390625 
Q 20.0625 6.109375 24.8125 6.109375 
Q 31.15625 6.109375 34.5625 8.28125 
Q 37.984375 10.453125 37.984375 14.40625 
Q 37.984375 18.0625 35.515625 20.015625 
Q 33.0625 21.96875 24.703125 23.78125 
L 21.578125 24.515625 
Q 13.234375 26.265625 9.515625 29.90625 
Q 5.8125 33.546875 5.8125 39.890625 
Q 5.8125 47.609375 11.28125 51.796875 
Q 16.75 56 26.8125 56 
Q 31.78125 56 36.171875 55.265625 
Q 40.578125 54.546875 44.28125 53.078125 
z
" id="DejaVuSans-115"/>
      <path id="DejaVuSans-32"/>
      <path d="M 19.671875 64.796875 
L 19.671875 37.40625 
L 32.078125 37.40625 
Q 38.96875 37.40625 42.71875 40.96875 
Q 46.484375 44.53125 46.484375 51.125 
Q 46.484375 57.671875 42.71875 61.234375 
Q 38.96875 64.796875 32.078125 64.796875 
z
M 9.8125 72.90625 
L 32.078125 72.90625 
Q 44.34375 72.90625 50.609375 67.359375 
Q 56.890625 61.8125 56.890625 51.125 
Q 56.890625 40.328125 50.609375 34.8125 
Q 44.34375 29.296875 32.078125 29.296875 
L 19.671875 29.296875 
L 19.671875 0 
L 9.8125 0 
z
" id="DejaVuSans-80"/>
      <path d="M 56.203125 29.59375 
L 56.203125 25.203125 
L 14.890625 25.203125 
Q 15.484375 15.921875 20.484375 11.0625 
Q 25.484375 6.203125 34.421875 6.203125 
Q 39.59375 6.203125 44.453125 7.46875 
Q 49.3125 8.734375 54.109375 11.28125 
L 54.109375 2.78125 
Q 49.265625 0.734375 44.1875 -0.34375 
Q 39.109375 -1.421875 33.890625 -1.421875 
Q 20.796875 -1.421875 13.15625 6.1875 
Q 5.515625 13.8125 5.515625 26.8125 
Q 5.515625 40.234375 12.765625 48.109375 
Q 20.015625 56 32.328125 56 
Q 43.359375 56 49.78125 48.890625 
Q 56.203125 41.796875 56.203125 29.59375 
z
M 47.21875 32.234375 
Q 47.125 39.59375 43.09375 43.984375 
Q 39.0625 48.390625 32.421875 48.390625 
Q 24.90625 48.390625 20.390625 44.140625 
Q 15.875 39.890625 15.1875 32.171875 
z
" id="DejaVuSans-101"/>
      <path d="M 41.109375 46.296875 
Q 39.59375 47.171875 37.8125 47.578125 
Q 36.03125 48 33.890625 48 
Q 26.265625 48 22.1875 43.046875 
Q 18.109375 38.09375 18.109375 28.8125 
L 18.109375 0 
L 9.078125 0 
L 9.078125 54.6875 
L 18.109375 54.6875 
L 18.109375 46.1875 
Q 20.953125 51.171875 25.484375 53.578125 
Q 30.03125 56 36.53125 56 
Q 37.453125 56 38.578125 55.875 
Q 39.703125 55.765625 41.0625 55.515625 
z
" id="DejaVuSans-114"/>
      <path d="M 64.40625 67.28125 
L 64.40625 56.890625 
Q 59.421875 61.53125 53.78125 63.8125 
Q 48.140625 66.109375 41.796875 66.109375 
Q 29.296875 66.109375 22.65625 58.46875 
Q 16.015625 50.828125 16.015625 36.375 
Q 16.015625 21.96875 22.65625 14.328125 
Q 29.296875 6.6875 41.796875 6.6875 
Q 48.140625 6.6875 53.78125 8.984375 
Q 59.421875 11.28125 64.40625 15.921875 
L 64.40625 5.609375 
Q 59.234375 2.09375 53.4375 0.328125 
Q 47.65625 -1.421875 41.21875 -1.421875 
Q 24.65625 -1.421875 15.125 8.703125 
Q 5.609375 18.84375 5.609375 36.375 
Q 5.609375 53.953125 15.125 64.078125 
Q 24.65625 74.21875 41.21875 74.21875 
Q 47.75 74.21875 53.53125 72.484375 
Q 59.328125 70.75 64.40625 67.28125 
z
" id="DejaVuSans-67"/>
      <path d="M 9.421875 75.984375 
L 18.40625 75.984375 
L 18.40625 0 
L 9.421875 0 
z
" id="DejaVuSans-108"/>
     </defs>
     <g style="fill:#262626;" transform="translate(126.440099 349.278953)scale(0.162 -0.162)">
      <use xlink:href="#DejaVuSans-68"/>
      <use x="77.001953" xlink:href="#DejaVuSans-97"/>
      <use x="138.28125" xlink:href="#DejaVuSans-116"/>
      <use x="177.490234" xlink:href="#DejaVuSans-97"/>
      <use x="238.769531" xlink:href="#DejaVuSans-112"/>
      <use x="302.246094" xlink:href="#DejaVuSans-111"/>
      <use x="363.427734" xlink:href="#DejaVuSans-105"/>
      <use x="391.210938" xlink:href="#DejaVuSans-110"/>
      <use x="454.589844" xlink:href="#DejaVuSans-116"/>
      <use x="493.798828" xlink:href="#DejaVuSans-115"/>
      <use x="545.898438" xlink:href="#DejaVuSans-32"/>
      <use x="577.685547" xlink:href="#DejaVuSans-80"/>
      <use x="637.941406" xlink:href="#DejaVuSans-101"/>
      <use x="699.464844" xlink:href="#DejaVuSans-114"/>
      <use x="740.578125" xlink:href="#DejaVuSans-32"/>
      <use x="772.365234" xlink:href="#DejaVuSans-67"/>
      <use x="842.189453" xlink:href="#DejaVuSans-108"/>
      <use x="869.972656" xlink:href="#DejaVuSans-97"/>
      <use x="931.251953" xlink:href="#DejaVuSans-115"/>
      <use x="983.351562" xlink:href="#DejaVuSans-115"/>
     </g>
    </g>
   </g>
   <g id="matplotlib.axis_2">
    <g id="ytick_1">
     <g id="line2d_5">
      <path clip-path="url(#p8793c9a856)" d="M 62.994703 296.075527 
L 357.623839 296.075527 
" style="fill:none;stroke:#ffffff;stroke-linecap:round;stroke-width:1.5;"/>
     </g>
     <g id="text_6">
      <!-- 0.2 -->
      <defs>
       <path d="M 10.6875 12.40625 
L 21 12.40625 
L 21 0 
L 10.6875 0 
z
" id="DejaVuSans-46"/>
       <path d="M 19.1875 8.296875 
L 53.609375 8.296875 
L 53.609375 0 
L 7.328125 0 
L 7.328125 8.296875 
Q 12.9375 14.109375 22.625 23.890625 
Q 32.328125 33.6875 34.8125 36.53125 
Q 39.546875 41.84375 41.421875 45.53125 
Q 43.3125 49.21875 43.3125 52.78125 
Q 43.3125 58.59375 39.234375 62.25 
Q 35.15625 65.921875 28.609375 65.921875 
Q 23.96875 65.921875 18.8125 64.3125 
Q 13.671875 62.703125 7.8125 59.421875 
L 7.8125 69.390625 
Q 13.765625 71.78125 18.9375 73 
Q 24.125 74.21875 28.421875 74.21875 
Q 39.75 74.21875 46.484375 68.546875 
Q 53.21875 62.890625 53.21875 53.421875 
Q 53.21875 48.921875 51.53125 44.890625 
Q 49.859375 40.875 45.40625 35.40625 
Q 44.1875 33.984375 37.640625 27.21875 
Q 31.109375 20.453125 19.1875 8.296875 
z
" id="DejaVuSans-50"/>
      </defs>
      <g style="fill:#262626;" transform="translate(26.878563 301.717367)scale(0.1485 -0.1485)">
       <use xlink:href="#DejaVuSans-48"/>
       <use x="63.623047" xlink:href="#DejaVuSans-46"/>
       <use x="95.410156" xlink:href="#DejaVuSans-50"/>
      </g>
     </g>
    </g>
    <g id="ytick_2">
     <g id="line2d_6">
      <path clip-path="url(#p8793c9a856)" d="M 62.994703 239.550191 
L 357.623839 239.550191 
" style="fill:none;stroke:#ffffff;stroke-linecap:round;stroke-width:1.5;"/>
     </g>
     <g id="text_7">
      <!-- 0.3 -->
      <defs>
       <path d="M 40.578125 39.3125 
Q 47.65625 37.796875 51.625 33 
Q 55.609375 28.21875 55.609375 21.1875 
Q 55.609375 10.40625 48.1875 4.484375 
Q 40.765625 -1.421875 27.09375 -1.421875 
Q 22.515625 -1.421875 17.65625 -0.515625 
Q 12.796875 0.390625 7.625 2.203125 
L 7.625 11.71875 
Q 11.71875 9.328125 16.59375 8.109375 
Q 21.484375 6.890625 26.8125 6.890625 
Q 36.078125 6.890625 40.9375 10.546875 
Q 45.796875 14.203125 45.796875 21.1875 
Q 45.796875 27.640625 41.28125 31.265625 
Q 36.765625 34.90625 28.71875 34.90625 
L 20.21875 34.90625 
L 20.21875 43.015625 
L 29.109375 43.015625 
Q 36.375 43.015625 40.234375 45.921875 
Q 44.09375 48.828125 44.09375 54.296875 
Q 44.09375 59.90625 40.109375 62.90625 
Q 36.140625 65.921875 28.71875 65.921875 
Q 24.65625 65.921875 20.015625 65.03125 
Q 15.375 64.15625 9.8125 62.3125 
L 9.8125 71.09375 
Q 15.4375 72.65625 20.34375 73.4375 
Q 25.25 74.21875 29.59375 74.21875 
Q 40.828125 74.21875 47.359375 69.109375 
Q 53.90625 64.015625 53.90625 55.328125 
Q 53.90625 49.265625 50.4375 45.09375 
Q 46.96875 40.921875 40.578125 39.3125 
z
" id="DejaVuSans-51"/>
      </defs>
      <g style="fill:#262626;" transform="translate(26.878563 245.19203)scale(0.1485 -0.1485)">
       <use xlink:href="#DejaVuSans-48"/>
       <use x="63.623047" xlink:href="#DejaVuSans-46"/>
       <use x="95.410156" xlink:href="#DejaVuSans-51"/>
      </g>
     </g>
    </g>
    <g id="ytick_3">
     <g id="line2d_7">
      <path clip-path="url(#p8793c9a856)" d="M 62.994703 183.024854 
L 357.623839 183.024854 
" style="fill:none;stroke:#ffffff;stroke-linecap:round;stroke-width:1.5;"/>
     </g>
     <g id="text_8">
      <!-- 0.4 -->
      <defs>
       <path d="M 37.796875 64.3125 
L 12.890625 25.390625 
L 37.796875 25.390625 
z
M 35.203125 72.90625 
L 47.609375 72.90625 
L 47.609375 25.390625 
L 58.015625 25.390625 
L 58.015625 17.1875 
L 47.609375 17.1875 
L 47.609375 0 
L 37.796875 0 
L 37.796875 17.1875 
L 4.890625 17.1875 
L 4.890625 26.703125 
z
" id="DejaVuSans-52"/>
      </defs>
      <g style="fill:#262626;" transform="translate(26.878563 188.666694)scale(0.1485 -0.1485)">
       <use xlink:href="#DejaVuSans-48"/>
       <use x="63.623047" xlink:href="#DejaVuSans-46"/>
       <use x="95.410156" xlink:href="#DejaVuSans-52"/>
      </g>
     </g>
    </g>
    <g id="ytick_4">
     <g id="line2d_8">
      <path clip-path="url(#p8793c9a856)" d="M 62.994703 126.499518 
L 357.623839 126.499518 
" style="fill:none;stroke:#ffffff;stroke-linecap:round;stroke-width:1.5;"/>
     </g>
     <g id="text_9">
      <!-- 0.5 -->
      <defs>
       <path d="M 10.796875 72.90625 
L 49.515625 72.90625 
L 49.515625 64.59375 
L 19.828125 64.59375 
L 19.828125 46.734375 
Q 21.96875 47.46875 24.109375 47.828125 
Q 26.265625 48.1875 28.421875 48.1875 
Q 40.625 48.1875 47.75 41.5 
Q 54.890625 34.8125 54.890625 23.390625 
Q 54.890625 11.625 47.5625 5.09375 
Q 40.234375 -1.421875 26.90625 -1.421875 
Q 22.3125 -1.421875 17.546875 -0.640625 
Q 12.796875 0.140625 7.71875 1.703125 
L 7.71875 11.625 
Q 12.109375 9.234375 16.796875 8.0625 
Q 21.484375 6.890625 26.703125 6.890625 
Q 35.15625 6.890625 40.078125 11.328125 
Q 45.015625 15.765625 45.015625 23.390625 
Q 45.015625 31 40.078125 35.4375 
Q 35.15625 39.890625 26.703125 39.890625 
Q 22.75 39.890625 18.8125 39.015625 
Q 14.890625 38.140625 10.796875 36.28125 
z
" id="DejaVuSans-53"/>
      </defs>
      <g style="fill:#262626;" transform="translate(26.878563 132.141358)scale(0.1485 -0.1485)">
       <use xlink:href="#DejaVuSans-48"/>
       <use x="63.623047" xlink:href="#DejaVuSans-46"/>
       <use x="95.410156" xlink:href="#DejaVuSans-53"/>
      </g>
     </g>
    </g>
    <g id="ytick_5">
     <g id="line2d_9">
      <path clip-path="url(#p8793c9a856)" d="M 62.994703 69.974182 
L 357.623839 69.974182 
" style="fill:none;stroke:#ffffff;stroke-linecap:round;stroke-width:1.5;"/>
     </g>
     <g id="text_10">
      <!-- 0.6 -->
      <g style="fill:#262626;" transform="translate(26.878563 75.616022)scale(0.1485 -0.1485)">
       <use xlink:href="#DejaVuSans-48"/>
       <use x="63.623047" xlink:href="#DejaVuSans-46"/>
       <use x="95.410156" xlink:href="#DejaVuSans-54"/>
      </g>
     </g>
    </g>
    <g id="text_11">
     <!-- Min of test__classification_error -->
     <defs>
      <path d="M 9.8125 72.90625 
L 24.515625 72.90625 
L 43.109375 23.296875 
L 61.8125 72.90625 
L 76.515625 72.90625 
L 76.515625 0 
L 66.890625 0 
L 66.890625 64.015625 
L 48.09375 14.015625 
L 38.1875 14.015625 
L 19.390625 64.015625 
L 19.390625 0 
L 9.8125 0 
z
" id="DejaVuSans-77"/>
      <path d="M 37.109375 75.984375 
L 37.109375 68.5 
L 28.515625 68.5 
Q 23.6875 68.5 21.796875 66.546875 
Q 19.921875 64.59375 19.921875 59.515625 
L 19.921875 54.6875 
L 34.71875 54.6875 
L 34.71875 47.703125 
L 19.921875 47.703125 
L 19.921875 0 
L 10.890625 0 
L 10.890625 47.703125 
L 2.296875 47.703125 
L 2.296875 54.6875 
L 10.890625 54.6875 
L 10.890625 58.5 
Q 10.890625 67.625 15.140625 71.796875 
Q 19.390625 75.984375 28.609375 75.984375 
z
" id="DejaVuSans-102"/>
      <path d="M -0.296875 72.90625 
L 61.375 72.90625 
L 61.375 64.59375 
L 35.5 64.59375 
L 35.5 0 
L 25.59375 0 
L 25.59375 64.59375 
L -0.296875 64.59375 
z
" id="DejaVuSans-84"/>
      <path d="M 9.8125 72.90625 
L 55.90625 72.90625 
L 55.90625 64.59375 
L 19.671875 64.59375 
L 19.671875 43.015625 
L 54.390625 43.015625 
L 54.390625 34.71875 
L 19.671875 34.71875 
L 19.671875 8.296875 
L 56.78125 8.296875 
L 56.78125 0 
L 9.8125 0 
z
" id="DejaVuSans-69"/>
     </defs>
     <g style="fill:#262626;" transform="translate(19.509469 233.071438)rotate(-90)scale(0.162 -0.162)">
      <use xlink:href="#DejaVuSans-77"/>
      <use x="86.279297" xlink:href="#DejaVuSans-105"/>
      <use x="114.0625" xlink:href="#DejaVuSans-110"/>
      <use x="177.441406" xlink:href="#DejaVuSans-32"/>
      <use x="209.228516" xlink:href="#DejaVuSans-111"/>
      <use x="270.410156" xlink:href="#DejaVuSans-102"/>
      <use x="305.615234" xlink:href="#DejaVuSans-32"/>
      <use x="337.402344" xlink:href="#DejaVuSans-84"/>
      <use x="398.220703" xlink:href="#DejaVuSans-101"/>
      <use x="459.744141" xlink:href="#DejaVuSans-115"/>
      <use x="511.84375" xlink:href="#DejaVuSans-116"/>
      <use x="551.052734" xlink:href="#DejaVuSans-32"/>
      <use x="582.839844" xlink:href="#DejaVuSans-69"/>
      <use x="646.023438" xlink:href="#DejaVuSans-114"/>
      <use x="687.121094" xlink:href="#DejaVuSans-114"/>
      <use x="728.203125" xlink:href="#DejaVuSans-111"/>
      <use x="789.384766" xlink:href="#DejaVuSans-114"/>
     </g>
    </g>
   </g>
   <g id="LineCollection_1">
    <path clip-path="url(#p8793c9a856)" d="M 76.386937 80.789363 
L 76.386937 56.295051 
" style="fill:none;stroke:#4c72b0;stroke-linecap:round;stroke-width:2.25;"/>
    <path clip-path="url(#p8793c9a856)" d="M 165.668493 244.976623 
L 165.668493 236.338798 
" style="fill:none;stroke:#4c72b0;stroke-linecap:round;stroke-width:2.25;"/>
    <path clip-path="url(#p8793c9a856)" d="M 254.95005 288.972176 
L 254.95005 284.826985 
" style="fill:none;stroke:#4c72b0;stroke-linecap:round;stroke-width:2.25;"/>
    <path clip-path="url(#p8793c9a856)" d="M 344.231606 293.343469 
L 344.231606 289.951949 
" style="fill:none;stroke:#4c72b0;stroke-linecap:round;stroke-width:2.25;"/>
   </g>
   <g id="LineCollection_2">
    <path clip-path="url(#p8793c9a856)" d="M 76.386937 56.464627 
L 76.386937 38.263469 
" style="fill:none;stroke:#dd8452;stroke-linecap:round;stroke-width:2.25;"/>
    <path clip-path="url(#p8793c9a856)" d="M 165.668493 232.183055 
L 165.668493 219.92585 
" style="fill:none;stroke:#dd8452;stroke-linecap:round;stroke-width:2.25;"/>
    <path clip-path="url(#p8793c9a856)" d="M 254.95005 272.937822 
L 254.95005 271.844999 
" style="fill:none;stroke:#dd8452;stroke-linecap:round;stroke-width:2.25;"/>
    <path clip-path="url(#p8793c9a856)" d="M 344.231606 278.288888 
L 344.231606 273.766861 
" style="fill:none;stroke:#dd8452;stroke-linecap:round;stroke-width:2.25;"/>
   </g>
   <g id="line2d_10">
    <path clip-path="url(#p8793c9a856)" d="M 76.386937 68.542207 
L 165.668493 240.887957 
L 254.95005 286.89958 
L 344.231606 291.647709 
" style="fill:none;stroke:#4c72b0;stroke-linecap:round;stroke-width:2.25;"/>
    <defs>
     <path d="M 0 4.5 
C 1.193414 4.5 2.338109 4.025852 3.181981 3.181981 
C 4.025852 2.338109 4.5 1.193414 4.5 0 
C 4.5 -1.193414 4.025852 -2.338109 3.181981 -3.181981 
C 2.338109 -4.025852 1.193414 -4.5 0 -4.5 
C -1.193414 -4.5 -2.338109 -4.025852 -3.181981 -3.181981 
C -4.025852 -2.338109 -4.5 -1.193414 -4.5 0 
C -4.5 1.193414 -4.025852 2.338109 -3.181981 3.181981 
C -2.338109 4.025852 -1.193414 4.5 0 4.5 
z
" id="m7b987b23b6" style="stroke:#ffffff;stroke-width:0.75;"/>
    </defs>
    <g clip-path="url(#p8793c9a856)">
     <use style="fill:#4c72b0;stroke:#ffffff;stroke-width:0.75;" x="76.386937" xlink:href="#m7b987b23b6" y="68.542207"/>
     <use style="fill:#4c72b0;stroke:#ffffff;stroke-width:0.75;" x="165.668493" xlink:href="#m7b987b23b6" y="240.887957"/>
     <use style="fill:#4c72b0;stroke:#ffffff;stroke-width:0.75;" x="254.95005" xlink:href="#m7b987b23b6" y="286.89958"/>
     <use style="fill:#4c72b0;stroke:#ffffff;stroke-width:0.75;" x="344.231606" xlink:href="#m7b987b23b6" y="291.647709"/>
    </g>
   </g>
   <g id="line2d_11">
    <defs>
     <path d="M 6 0 
L -6 -0 
" id="mb6b9f8e9bf" style="stroke:#4c72b0;stroke-width:2;"/>
    </defs>
    <g clip-path="url(#p8793c9a856)">
     <use style="fill:#4c72b0;stroke:#4c72b0;stroke-width:2;" x="76.386937" xlink:href="#mb6b9f8e9bf" y="80.789363"/>
     <use style="fill:#4c72b0;stroke:#4c72b0;stroke-width:2;" x="165.668493" xlink:href="#mb6b9f8e9bf" y="244.976623"/>
     <use style="fill:#4c72b0;stroke:#4c72b0;stroke-width:2;" x="254.95005" xlink:href="#mb6b9f8e9bf" y="288.972176"/>
     <use style="fill:#4c72b0;stroke:#4c72b0;stroke-width:2;" x="344.231606" xlink:href="#mb6b9f8e9bf" y="293.343469"/>
    </g>
   </g>
   <g id="line2d_12">
    <g clip-path="url(#p8793c9a856)">
     <use style="fill:#4c72b0;stroke:#4c72b0;stroke-width:2;" x="76.386937" xlink:href="#mb6b9f8e9bf" y="56.295051"/>
     <use style="fill:#4c72b0;stroke:#4c72b0;stroke-width:2;" x="165.668493" xlink:href="#mb6b9f8e9bf" y="236.338798"/>
     <use style="fill:#4c72b0;stroke:#4c72b0;stroke-width:2;" x="254.95005" xlink:href="#mb6b9f8e9bf" y="284.826985"/>
     <use style="fill:#4c72b0;stroke:#4c72b0;stroke-width:2;" x="344.231606" xlink:href="#mb6b9f8e9bf" y="289.951949"/>
    </g>
   </g>
   <g id="line2d_13">
    <path clip-path="url(#p8793c9a856)" d="M 76.386937 47.364048 
L 165.668493 226.134844 
L 254.95005 272.391411 
L 344.231606 276.027874 
" style="fill:none;stroke:#dd8452;stroke-dasharray:9,3.375;stroke-dashoffset:0;stroke-width:2.25;"/>
    <defs>
     <path d="M -2.25 4.5 
L 0 2.25 
L 2.25 4.5 
L 4.5 2.25 
L 2.25 0 
L 4.5 -2.25 
L 2.25 -4.5 
L 0 -2.25 
L -2.25 -4.5 
L -4.5 -2.25 
L -2.25 0 
L -4.5 2.25 
z
" id="m8a89247e6c" style="stroke:#ffffff;stroke-linejoin:miter;stroke-width:0.75;"/>
    </defs>
    <g clip-path="url(#p8793c9a856)">
     <use style="fill:#dd8452;stroke:#ffffff;stroke-linejoin:miter;stroke-width:0.75;" x="76.386937" xlink:href="#m8a89247e6c" y="47.364048"/>
     <use style="fill:#dd8452;stroke:#ffffff;stroke-linejoin:miter;stroke-width:0.75;" x="165.668493" xlink:href="#m8a89247e6c" y="226.134844"/>
     <use style="fill:#dd8452;stroke:#ffffff;stroke-linejoin:miter;stroke-width:0.75;" x="254.95005" xlink:href="#m8a89247e6c" y="272.391411"/>
     <use style="fill:#dd8452;stroke:#ffffff;stroke-linejoin:miter;stroke-width:0.75;" x="344.231606" xlink:href="#m8a89247e6c" y="276.027874"/>
    </g>
   </g>
   <g id="line2d_14">
    <defs>
     <path d="M 6 0 
L -6 -0 
" id="md3a135c7ff" style="stroke:#dd8452;stroke-width:2;"/>
    </defs>
    <g clip-path="url(#p8793c9a856)">
     <use style="fill:#dd8452;stroke:#dd8452;stroke-width:2;" x="76.386937" xlink:href="#md3a135c7ff" y="56.464627"/>
     <use style="fill:#dd8452;stroke:#dd8452;stroke-width:2;" x="165.668493" xlink:href="#md3a135c7ff" y="232.183055"/>
     <use style="fill:#dd8452;stroke:#dd8452;stroke-width:2;" x="254.95005" xlink:href="#md3a135c7ff" y="272.937822"/>
     <use style="fill:#dd8452;stroke:#dd8452;stroke-width:2;" x="344.231606" xlink:href="#md3a135c7ff" y="278.288888"/>
    </g>
   </g>
   <g id="line2d_15">
    <g clip-path="url(#p8793c9a856)">
     <use style="fill:#dd8452;stroke:#dd8452;stroke-width:2;" x="76.386937" xlink:href="#md3a135c7ff" y="38.263469"/>
     <use style="fill:#dd8452;stroke:#dd8452;stroke-width:2;" x="165.668493" xlink:href="#md3a135c7ff" y="219.92585"/>
     <use style="fill:#dd8452;stroke:#dd8452;stroke-width:2;" x="254.95005" xlink:href="#md3a135c7ff" y="271.844999"/>
     <use style="fill:#dd8452;stroke:#dd8452;stroke-width:2;" x="344.231606" xlink:href="#md3a135c7ff" y="273.766861"/>
    </g>
   </g>
   <g id="line2d_16"/>
   <g id="line2d_17"/>
   <g id="line2d_18"/>
   <g id="line2d_19"/>
   <g id="patch_3">
    <path d="M 62.994703 306.097469 
L 62.994703 25.509469 
" style="fill:none;stroke:#ffffff;stroke-linecap:square;stroke-linejoin:miter;stroke-width:1.875;"/>
   </g>
   <g id="patch_4">
    <path d="M 62.994703 306.097469 
L 357.623839 306.097469 
" style="fill:none;stroke:#ffffff;stroke-linecap:square;stroke-linejoin:miter;stroke-width:1.875;"/>
   </g>
   <g id="text_12">
    <!-- Hidden Size = 8 -->
    <defs>
     <path d="M 9.8125 72.90625 
L 19.671875 72.90625 
L 19.671875 43.015625 
L 55.515625 43.015625 
L 55.515625 72.90625 
L 65.375 72.90625 
L 65.375 0 
L 55.515625 0 
L 55.515625 34.71875 
L 19.671875 34.71875 
L 19.671875 0 
L 9.8125 0 
z
" id="DejaVuSans-72"/>
     <path d="M 45.40625 46.390625 
L 45.40625 75.984375 
L 54.390625 75.984375 
L 54.390625 0 
L 45.40625 0 
L 45.40625 8.203125 
Q 42.578125 3.328125 38.25 0.953125 
Q 33.9375 -1.421875 27.875 -1.421875 
Q 17.96875 -1.421875 11.734375 6.484375 
Q 5.515625 14.40625 5.515625 27.296875 
Q 5.515625 40.1875 11.734375 48.09375 
Q 17.96875 56 27.875 56 
Q 33.9375 56 38.25 53.625 
Q 42.578125 51.265625 45.40625 46.390625 
z
M 14.796875 27.296875 
Q 14.796875 17.390625 18.875 11.75 
Q 22.953125 6.109375 30.078125 6.109375 
Q 37.203125 6.109375 41.296875 11.75 
Q 45.40625 17.390625 45.40625 27.296875 
Q 45.40625 37.203125 41.296875 42.84375 
Q 37.203125 48.484375 30.078125 48.484375 
Q 22.953125 48.484375 18.875 42.84375 
Q 14.796875 37.203125 14.796875 27.296875 
z
" id="DejaVuSans-100"/>
     <path d="M 53.515625 70.515625 
L 53.515625 60.890625 
Q 47.90625 63.578125 42.921875 64.890625 
Q 37.9375 66.21875 33.296875 66.21875 
Q 25.25 66.21875 20.875 63.09375 
Q 16.5 59.96875 16.5 54.203125 
Q 16.5 49.359375 19.40625 46.890625 
Q 22.3125 44.4375 30.421875 42.921875 
L 36.375 41.703125 
Q 47.40625 39.59375 52.65625 34.296875 
Q 57.90625 29 57.90625 20.125 
Q 57.90625 9.515625 50.796875 4.046875 
Q 43.703125 -1.421875 29.984375 -1.421875 
Q 24.8125 -1.421875 18.96875 -0.25 
Q 13.140625 0.921875 6.890625 3.21875 
L 6.890625 13.375 
Q 12.890625 10.015625 18.65625 8.296875 
Q 24.421875 6.59375 29.984375 6.59375 
Q 38.421875 6.59375 43.015625 9.90625 
Q 47.609375 13.234375 47.609375 19.390625 
Q 47.609375 24.75 44.3125 27.78125 
Q 41.015625 30.8125 33.5 32.328125 
L 27.484375 33.5 
Q 16.453125 35.6875 11.515625 40.375 
Q 6.59375 45.0625 6.59375 53.421875 
Q 6.59375 63.09375 13.40625 68.65625 
Q 20.21875 74.21875 32.171875 74.21875 
Q 37.3125 74.21875 42.625 73.28125 
Q 47.953125 72.359375 53.515625 70.515625 
z
" id="DejaVuSans-83"/>
     <path d="M 5.515625 54.6875 
L 48.1875 54.6875 
L 48.1875 46.484375 
L 14.40625 7.171875 
L 48.1875 7.171875 
L 48.1875 0 
L 4.296875 0 
L 4.296875 8.203125 
L 38.09375 47.515625 
L 5.515625 47.515625 
z
" id="DejaVuSans-122"/>
     <path d="M 10.59375 45.40625 
L 73.1875 45.40625 
L 73.1875 37.203125 
L 10.59375 37.203125 
z
M 10.59375 25.484375 
L 73.1875 25.484375 
L 73.1875 17.1875 
L 10.59375 17.1875 
z
" id="DejaVuSans-61"/>
     <path d="M 31.78125 34.625 
Q 24.75 34.625 20.71875 30.859375 
Q 16.703125 27.09375 16.703125 20.515625 
Q 16.703125 13.921875 20.71875 10.15625 
Q 24.75 6.390625 31.78125 6.390625 
Q 38.8125 6.390625 42.859375 10.171875 
Q 46.921875 13.96875 46.921875 20.515625 
Q 46.921875 27.09375 42.890625 30.859375 
Q 38.875 34.625 31.78125 34.625 
z
M 21.921875 38.8125 
Q 15.578125 40.375 12.03125 44.71875 
Q 8.5 49.078125 8.5 55.328125 
Q 8.5 64.0625 14.71875 69.140625 
Q 20.953125 74.21875 31.78125 74.21875 
Q 42.671875 74.21875 48.875 69.140625 
Q 55.078125 64.0625 55.078125 55.328125 
Q 55.078125 49.078125 51.53125 44.71875 
Q 48 40.375 41.703125 38.8125 
Q 48.828125 37.15625 52.796875 32.3125 
Q 56.78125 27.484375 56.78125 20.515625 
Q 56.78125 9.90625 50.3125 4.234375 
Q 43.84375 -1.421875 31.78125 -1.421875 
Q 19.734375 -1.421875 13.25 4.234375 
Q 6.78125 9.90625 6.78125 20.515625 
Q 6.78125 27.484375 10.78125 32.3125 
Q 14.796875 37.15625 21.921875 38.8125 
z
M 18.3125 54.390625 
Q 18.3125 48.734375 21.84375 45.5625 
Q 25.390625 42.390625 31.78125 42.390625 
Q 38.140625 42.390625 41.71875 45.5625 
Q 45.3125 48.734375 45.3125 54.390625 
Q 45.3125 60.0625 41.71875 63.234375 
Q 38.140625 66.40625 31.78125 66.40625 
Q 25.390625 66.40625 21.84375 63.234375 
Q 18.3125 60.0625 18.3125 54.390625 
z
" id="DejaVuSans-56"/>
    </defs>
    <g style="fill:#262626;" transform="translate(145.273865 19.509469)scale(0.162 -0.162)">
     <use xlink:href="#DejaVuSans-72"/>
     <use x="75.195312" xlink:href="#DejaVuSans-105"/>
     <use x="102.978516" xlink:href="#DejaVuSans-100"/>
     <use x="166.455078" xlink:href="#DejaVuSans-100"/>
     <use x="229.931641" xlink:href="#DejaVuSans-101"/>
     <use x="291.455078" xlink:href="#DejaVuSans-110"/>
     <use x="354.833984" xlink:href="#DejaVuSans-32"/>
     <use x="386.621094" xlink:href="#DejaVuSans-83"/>
     <use x="450.097656" xlink:href="#DejaVuSans-105"/>
     <use x="477.880859" xlink:href="#DejaVuSans-122"/>
     <use x="530.371094" xlink:href="#DejaVuSans-101"/>
     <use x="591.894531" xlink:href="#DejaVuSans-32"/>
     <use x="623.681641" xlink:href="#DejaVuSans-61"/>
     <use x="707.470703" xlink:href="#DejaVuSans-32"/>
     <use x="739.257812" xlink:href="#DejaVuSans-56"/>
    </g>
   </g>
   <g id="legend_1">
    <g id="patch_5">
     <path d="M 277.95591 104.087063 
L 347.228839 104.087063 
Q 350.198839 104.087063 350.198839 101.117063 
L 350.198839 35.904469 
Q 350.198839 32.934469 347.228839 32.934469 
L 277.95591 32.934469 
Q 274.98591 32.934469 274.98591 35.904469 
L 274.98591 101.117063 
Q 274.98591 104.087063 277.95591 104.087063 
z
" style="fill:#eaeaf2;opacity:0.8;stroke:#cccccc;stroke-linejoin:miter;stroke-width:1.5;"/>
    </g>
    <g id="text_13">
     <!-- Rule -->
     <defs>
      <path d="M 44.390625 34.1875 
Q 47.5625 33.109375 50.5625 29.59375 
Q 53.5625 26.078125 56.59375 19.921875 
L 66.609375 0 
L 56 0 
L 46.6875 18.703125 
Q 43.0625 26.03125 39.671875 28.421875 
Q 36.28125 30.8125 30.421875 30.8125 
L 19.671875 30.8125 
L 19.671875 0 
L 9.8125 0 
L 9.8125 72.90625 
L 32.078125 72.90625 
Q 44.578125 72.90625 50.734375 67.671875 
Q 56.890625 62.453125 56.890625 51.90625 
Q 56.890625 45.015625 53.6875 40.46875 
Q 50.484375 35.9375 44.390625 34.1875 
z
M 19.671875 64.796875 
L 19.671875 38.921875 
L 32.078125 38.921875 
Q 39.203125 38.921875 42.84375 42.21875 
Q 46.484375 45.515625 46.484375 51.90625 
Q 46.484375 58.296875 42.84375 61.546875 
Q 39.203125 64.796875 32.078125 64.796875 
z
" id="DejaVuSans-82"/>
      <path d="M 8.5 21.578125 
L 8.5 54.6875 
L 17.484375 54.6875 
L 17.484375 21.921875 
Q 17.484375 14.15625 20.5 10.265625 
Q 23.53125 6.390625 29.59375 6.390625 
Q 36.859375 6.390625 41.078125 11.03125 
Q 45.3125 15.671875 45.3125 23.6875 
L 45.3125 54.6875 
L 54.296875 54.6875 
L 54.296875 0 
L 45.3125 0 
L 45.3125 8.40625 
Q 42.046875 3.421875 37.71875 1 
Q 33.40625 -1.421875 27.6875 -1.421875 
Q 18.265625 -1.421875 13.375 4.4375 
Q 8.5 10.296875 8.5 21.578125 
z
M 31.109375 56 
z
" id="DejaVuSans-117"/>
     </defs>
     <g style="fill:#262626;" transform="translate(294.601515 51.183938)scale(0.162 -0.162)">
      <use xlink:href="#DejaVuSans-82"/>
      <use x="69.419922" xlink:href="#DejaVuSans-117"/>
      <use x="132.798828" xlink:href="#DejaVuSans-108"/>
      <use x="160.582031" xlink:href="#DejaVuSans-101"/>
     </g>
    </g>
    <g id="line2d_20">
     <path d="M 280.92591 68.064211 
L 310.62591 68.064211 
" style="fill:none;stroke:#4c72b0;stroke-linecap:round;stroke-width:2.25;"/>
    </g>
    <g id="line2d_21">
     <defs>
      <path d="M 0 4.5 
C 1.193414 4.5 2.338109 4.025852 3.181981 3.181981 
C 4.025852 2.338109 4.5 1.193414 4.5 0 
C 4.5 -1.193414 4.025852 -2.338109 3.181981 -3.181981 
C 2.338109 -4.025852 1.193414 -4.5 0 -4.5 
C -1.193414 -4.5 -2.338109 -4.025852 -3.181981 -3.181981 
C -4.025852 -2.338109 -4.5 -1.193414 -4.5 0 
C -4.5 1.193414 -4.025852 2.338109 -3.181981 3.181981 
C -2.338109 4.025852 -1.193414 4.5 0 4.5 
z
" id="mfab9f63811" style="stroke:#4c72b0;"/>
     </defs>
     <g>
      <use style="fill:#4c72b0;stroke:#4c72b0;" x="295.77591" xlink:href="#mfab9f63811" y="68.064211"/>
     </g>
    </g>
    <g id="text_14">
     <!-- RD -->
     <g style="fill:#262626;" transform="translate(322.50591 73.261711)scale(0.1485 -0.1485)">
      <use xlink:href="#DejaVuSans-82"/>
      <use x="69.482422" xlink:href="#DejaVuSans-68"/>
     </g>
    </g>
    <g id="line2d_22">
     <path d="M 280.92591 89.861227 
L 310.62591 89.861227 
" style="fill:none;stroke:#dd8452;stroke-dasharray:9,3.375;stroke-dashoffset:0;stroke-width:2.25;"/>
    </g>
    <g id="line2d_23">
     <defs>
      <path d="M -2.25 4.5 
L 0 2.25 
L 2.25 4.5 
L 4.5 2.25 
L 2.25 0 
L 4.5 -2.25 
L 2.25 -4.5 
L 0 -2.25 
L -2.25 -4.5 
L -4.5 -2.25 
L -2.25 0 
L -4.5 2.25 
z
" id="mbff33f727a" style="stroke:#dd8452;stroke-linejoin:miter;"/>
     </defs>
     <g>
      <use style="fill:#dd8452;stroke:#dd8452;stroke-linejoin:miter;" x="295.77591" xlink:href="#mbff33f727a" y="89.861227"/>
     </g>
    </g>
    <g id="text_15">
     <!-- BP -->
     <defs>
      <path d="M 19.671875 34.8125 
L 19.671875 8.109375 
L 35.5 8.109375 
Q 43.453125 8.109375 47.28125 11.40625 
Q 51.125 14.703125 51.125 21.484375 
Q 51.125 28.328125 47.28125 31.5625 
Q 43.453125 34.8125 35.5 34.8125 
z
M 19.671875 64.796875 
L 19.671875 42.828125 
L 34.28125 42.828125 
Q 41.5 42.828125 45.03125 45.53125 
Q 48.578125 48.25 48.578125 53.8125 
Q 48.578125 59.328125 45.03125 62.0625 
Q 41.5 64.796875 34.28125 64.796875 
z
M 9.8125 72.90625 
L 35.015625 72.90625 
Q 46.296875 72.90625 52.390625 68.21875 
Q 58.5 63.53125 58.5 54.890625 
Q 58.5 48.1875 55.375 44.234375 
Q 52.25 40.28125 46.1875 39.3125 
Q 53.46875 37.75 57.5 32.78125 
Q 61.53125 27.828125 61.53125 20.40625 
Q 61.53125 10.640625 54.890625 5.3125 
Q 48.25 0 35.984375 0 
L 9.8125 0 
z
" id="DejaVuSans-66"/>
     </defs>
     <g style="fill:#262626;" transform="translate(322.50591 95.058727)scale(0.1485 -0.1485)">
      <use xlink:href="#DejaVuSans-66"/>
      <use x="68.603516" xlink:href="#DejaVuSans-80"/>
     </g>
    </g>
   </g>
  </g>
  <g id="axes_2">
   <g id="patch_6">
    <path d="M 417.162703 306.097469 
L 711.791839 306.097469 
L 711.791839 25.509469 
L 417.162703 25.509469 
z
" style="fill:#eaeaf2;"/>
   </g>
   <g id="matplotlib.axis_3">
    <g id="xtick_29">
     <g id="line2d_24">
      <path clip-path="url(#pb81547de9e)" d="M 430.554937 306.097469 
L 430.554937 25.509469 
" style="fill:none;stroke:#ffffff;stroke-linecap:round;stroke-width:1.5;"/>
     </g>
     <g id="text_16">
      <!-- 6 -->
      <g style="fill:#262626;" transform="translate(425.83078 329.881148)scale(0.1485 -0.1485)">
       <use xlink:href="#DejaVuSans-54"/>
      </g>
     </g>
    </g>
    <g id="xtick_30">
     <g id="line2d_25">
      <path clip-path="url(#pb81547de9e)" d="M 519.836493 306.097469 
L 519.836493 25.509469 
" style="fill:none;stroke:#ffffff;stroke-linecap:round;stroke-width:1.5;"/>
     </g>
     <g id="text_17">
      <!-- 60 -->
      <g style="fill:#262626;" transform="translate(510.388181 329.881148)scale(0.1485 -0.1485)">
       <use xlink:href="#DejaVuSans-54"/>
       <use x="63.623047" xlink:href="#DejaVuSans-48"/>
      </g>
     </g>
    </g>
    <g id="xtick_31">
     <g id="line2d_26">
      <path clip-path="url(#pb81547de9e)" d="M 609.11805 306.097469 
L 609.11805 25.509469 
" style="fill:none;stroke:#ffffff;stroke-linecap:round;stroke-width:1.5;"/>
     </g>
     <g id="text_18">
      <!-- 600 -->
      <g style="fill:#262626;" transform="translate(594.945581 329.881148)scale(0.1485 -0.1485)">
       <use xlink:href="#DejaVuSans-54"/>
       <use x="63.623047" xlink:href="#DejaVuSans-48"/>
       <use x="127.246094" xlink:href="#DejaVuSans-48"/>
      </g>
     </g>
    </g>
    <g id="xtick_32">
     <g id="line2d_27">
      <path clip-path="url(#pb81547de9e)" d="M 698.399606 306.097469 
L 698.399606 25.509469 
" style="fill:none;stroke:#ffffff;stroke-linecap:round;stroke-width:1.5;"/>
     </g>
     <g id="text_19">
      <!-- 6000 -->
      <g style="fill:#262626;" transform="translate(679.502981 329.881148)scale(0.1485 -0.1485)">
       <use xlink:href="#DejaVuSans-54"/>
       <use x="63.623047" xlink:href="#DejaVuSans-48"/>
       <use x="127.246094" xlink:href="#DejaVuSans-48"/>
       <use x="190.869141" xlink:href="#DejaVuSans-48"/>
      </g>
     </g>
    </g>
    <g id="xtick_33"/>
    <g id="xtick_34"/>
    <g id="xtick_35"/>
    <g id="xtick_36"/>
    <g id="xtick_37"/>
    <g id="xtick_38"/>
    <g id="xtick_39"/>
    <g id="xtick_40"/>
    <g id="xtick_41"/>
    <g id="xtick_42"/>
    <g id="xtick_43"/>
    <g id="xtick_44"/>
    <g id="xtick_45"/>
    <g id="xtick_46"/>
    <g id="xtick_47"/>
    <g id="xtick_48"/>
    <g id="xtick_49"/>
    <g id="xtick_50"/>
    <g id="xtick_51"/>
    <g id="xtick_52"/>
    <g id="xtick_53"/>
    <g id="xtick_54"/>
    <g id="xtick_55"/>
    <g id="xtick_56"/>
    <g id="text_20">
     <!-- Datapoints Per Class -->
     <g style="fill:#262626;" transform="translate(480.608099 349.278953)scale(0.162 -0.162)">
      <use xlink:href="#DejaVuSans-68"/>
      <use x="77.001953" xlink:href="#DejaVuSans-97"/>
      <use x="138.28125" xlink:href="#DejaVuSans-116"/>
      <use x="177.490234" xlink:href="#DejaVuSans-97"/>
      <use x="238.769531" xlink:href="#DejaVuSans-112"/>
      <use x="302.246094" xlink:href="#DejaVuSans-111"/>
      <use x="363.427734" xlink:href="#DejaVuSans-105"/>
      <use x="391.210938" xlink:href="#DejaVuSans-110"/>
      <use x="454.589844" xlink:href="#DejaVuSans-116"/>
      <use x="493.798828" xlink:href="#DejaVuSans-115"/>
      <use x="545.898438" xlink:href="#DejaVuSans-32"/>
      <use x="577.685547" xlink:href="#DejaVuSans-80"/>
      <use x="637.941406" xlink:href="#DejaVuSans-101"/>
      <use x="699.464844" xlink:href="#DejaVuSans-114"/>
      <use x="740.578125" xlink:href="#DejaVuSans-32"/>
      <use x="772.365234" xlink:href="#DejaVuSans-67"/>
      <use x="842.189453" xlink:href="#DejaVuSans-108"/>
      <use x="869.972656" xlink:href="#DejaVuSans-97"/>
      <use x="931.251953" xlink:href="#DejaVuSans-115"/>
      <use x="983.351562" xlink:href="#DejaVuSans-115"/>
     </g>
    </g>
   </g>
   <g id="matplotlib.axis_4">
    <g id="ytick_6">
     <g id="line2d_28">
      <path clip-path="url(#pb81547de9e)" d="M 417.162703 252.643559 
L 711.791839 252.643559 
" style="fill:none;stroke:#ffffff;stroke-linecap:round;stroke-width:1.5;"/>
     </g>
     <g id="text_21">
      <!-- 0.2 -->
      <g style="fill:#262626;" transform="translate(381.046563 258.285399)scale(0.1485 -0.1485)">
       <use xlink:href="#DejaVuSans-48"/>
       <use x="63.623047" xlink:href="#DejaVuSans-46"/>
       <use x="95.410156" xlink:href="#DejaVuSans-50"/>
      </g>
     </g>
    </g>
    <g id="ytick_7">
     <g id="line2d_29">
      <path clip-path="url(#pb81547de9e)" d="M 417.162703 196.941128 
L 711.791839 196.941128 
" style="fill:none;stroke:#ffffff;stroke-linecap:round;stroke-width:1.5;"/>
     </g>
     <g id="text_22">
      <!-- 0.3 -->
      <g style="fill:#262626;" transform="translate(381.046563 202.582968)scale(0.1485 -0.1485)">
       <use xlink:href="#DejaVuSans-48"/>
       <use x="63.623047" xlink:href="#DejaVuSans-46"/>
       <use x="95.410156" xlink:href="#DejaVuSans-51"/>
      </g>
     </g>
    </g>
    <g id="ytick_8">
     <g id="line2d_30">
      <path clip-path="url(#pb81547de9e)" d="M 417.162703 141.238697 
L 711.791839 141.238697 
" style="fill:none;stroke:#ffffff;stroke-linecap:round;stroke-width:1.5;"/>
     </g>
     <g id="text_23">
      <!-- 0.4 -->
      <g style="fill:#262626;" transform="translate(381.046563 146.880536)scale(0.1485 -0.1485)">
       <use xlink:href="#DejaVuSans-48"/>
       <use x="63.623047" xlink:href="#DejaVuSans-46"/>
       <use x="95.410156" xlink:href="#DejaVuSans-52"/>
      </g>
     </g>
    </g>
    <g id="ytick_9">
     <g id="line2d_31">
      <path clip-path="url(#pb81547de9e)" d="M 417.162703 85.536265 
L 711.791839 85.536265 
" style="fill:none;stroke:#ffffff;stroke-linecap:round;stroke-width:1.5;"/>
     </g>
     <g id="text_24">
      <!-- 0.5 -->
      <g style="fill:#262626;" transform="translate(381.046563 91.178105)scale(0.1485 -0.1485)">
       <use xlink:href="#DejaVuSans-48"/>
       <use x="63.623047" xlink:href="#DejaVuSans-46"/>
       <use x="95.410156" xlink:href="#DejaVuSans-53"/>
      </g>
     </g>
    </g>
    <g id="ytick_10">
     <g id="line2d_32">
      <path clip-path="url(#pb81547de9e)" d="M 417.162703 29.833834 
L 711.791839 29.833834 
" style="fill:none;stroke:#ffffff;stroke-linecap:round;stroke-width:1.5;"/>
     </g>
     <g id="text_25">
      <!-- 0.6 -->
      <g style="fill:#262626;" transform="translate(381.046563 35.475674)scale(0.1485 -0.1485)">
       <use xlink:href="#DejaVuSans-48"/>
       <use x="63.623047" xlink:href="#DejaVuSans-46"/>
       <use x="95.410156" xlink:href="#DejaVuSans-54"/>
      </g>
     </g>
    </g>
   </g>
   <g id="LineCollection_3">
    <path clip-path="url(#pb81547de9e)" d="M 430.554937 124.639372 
L 430.554937 100.241707 
" style="fill:none;stroke:#4c72b0;stroke-linecap:round;stroke-width:2.25;"/>
    <path clip-path="url(#pb81547de9e)" d="M 519.836493 227.91168 
L 519.836493 223.009866 
" style="fill:none;stroke:#4c72b0;stroke-linecap:round;stroke-width:2.25;"/>
    <path clip-path="url(#pb81547de9e)" d="M 609.11805 269.112911 
L 609.11805 268.221672 
" style="fill:none;stroke:#4c72b0;stroke-linecap:round;stroke-width:2.25;"/>
    <path clip-path="url(#pb81547de9e)" d="M 698.399606 280.01202 
L 698.399606 279.232186 
" style="fill:none;stroke:#4c72b0;stroke-linecap:round;stroke-width:2.25;"/>
   </g>
   <g id="LineCollection_4">
    <path clip-path="url(#pb81547de9e)" d="M 430.554937 73.913025 
L 430.554937 38.263469 
" style="fill:none;stroke:#dd8452;stroke-linecap:round;stroke-width:2.25;"/>
    <path clip-path="url(#pb81547de9e)" d="M 519.836493 199.670547 
L 519.836493 193.654684 
" style="fill:none;stroke:#dd8452;stroke-linecap:round;stroke-width:2.25;"/>
    <path clip-path="url(#pb81547de9e)" d="M 609.11805 270.059853 
L 609.11805 268.38878 
" style="fill:none;stroke:#dd8452;stroke-linecap:round;stroke-width:2.25;"/>
    <path clip-path="url(#pb81547de9e)" d="M 698.399606 293.343469 
L 698.399606 292.15515 
" style="fill:none;stroke:#dd8452;stroke-linecap:round;stroke-width:2.25;"/>
   </g>
   <g id="line2d_33">
    <path clip-path="url(#pb81547de9e)" d="M 430.554937 112.44054 
L 519.836493 225.460773 
L 609.11805 268.667292 
L 698.399606 279.622103 
" style="fill:none;stroke:#4c72b0;stroke-linecap:round;stroke-width:2.25;"/>
    <g clip-path="url(#pb81547de9e)">
     <use style="fill:#4c72b0;stroke:#ffffff;stroke-width:0.75;" x="430.554937" xlink:href="#m7b987b23b6" y="112.44054"/>
     <use style="fill:#4c72b0;stroke:#ffffff;stroke-width:0.75;" x="519.836493" xlink:href="#m7b987b23b6" y="225.460773"/>
     <use style="fill:#4c72b0;stroke:#ffffff;stroke-width:0.75;" x="609.11805" xlink:href="#m7b987b23b6" y="268.667292"/>
     <use style="fill:#4c72b0;stroke:#ffffff;stroke-width:0.75;" x="698.399606" xlink:href="#m7b987b23b6" y="279.622103"/>
    </g>
   </g>
   <g id="line2d_34">
    <g clip-path="url(#pb81547de9e)">
     <use style="fill:#4c72b0;stroke:#4c72b0;stroke-width:2;" x="430.554937" xlink:href="#mb6b9f8e9bf" y="124.639372"/>
     <use style="fill:#4c72b0;stroke:#4c72b0;stroke-width:2;" x="519.836493" xlink:href="#mb6b9f8e9bf" y="227.91168"/>
     <use style="fill:#4c72b0;stroke:#4c72b0;stroke-width:2;" x="609.11805" xlink:href="#mb6b9f8e9bf" y="269.112911"/>
     <use style="fill:#4c72b0;stroke:#4c72b0;stroke-width:2;" x="698.399606" xlink:href="#mb6b9f8e9bf" y="280.01202"/>
    </g>
   </g>
   <g id="line2d_35">
    <g clip-path="url(#pb81547de9e)">
     <use style="fill:#4c72b0;stroke:#4c72b0;stroke-width:2;" x="430.554937" xlink:href="#mb6b9f8e9bf" y="100.241707"/>
     <use style="fill:#4c72b0;stroke:#4c72b0;stroke-width:2;" x="519.836493" xlink:href="#mb6b9f8e9bf" y="223.009866"/>
     <use style="fill:#4c72b0;stroke:#4c72b0;stroke-width:2;" x="609.11805" xlink:href="#mb6b9f8e9bf" y="268.221672"/>
     <use style="fill:#4c72b0;stroke:#4c72b0;stroke-width:2;" x="698.399606" xlink:href="#mb6b9f8e9bf" y="279.232186"/>
    </g>
   </g>
   <g id="line2d_36">
    <path clip-path="url(#pb81547de9e)" d="M 430.554937 60.247362 
L 519.836493 196.662616 
L 609.11805 269.224316 
L 698.399606 292.749309 
" style="fill:none;stroke:#dd8452;stroke-dasharray:9,3.375;stroke-dashoffset:0;stroke-width:2.25;"/>
    <g clip-path="url(#pb81547de9e)">
     <use style="fill:#dd8452;stroke:#ffffff;stroke-linejoin:miter;stroke-width:0.75;" x="430.554937" xlink:href="#m8a89247e6c" y="60.247362"/>
     <use style="fill:#dd8452;stroke:#ffffff;stroke-linejoin:miter;stroke-width:0.75;" x="519.836493" xlink:href="#m8a89247e6c" y="196.662616"/>
     <use style="fill:#dd8452;stroke:#ffffff;stroke-linejoin:miter;stroke-width:0.75;" x="609.11805" xlink:href="#m8a89247e6c" y="269.224316"/>
     <use style="fill:#dd8452;stroke:#ffffff;stroke-linejoin:miter;stroke-width:0.75;" x="698.399606" xlink:href="#m8a89247e6c" y="292.749309"/>
    </g>
   </g>
   <g id="line2d_37">
    <g clip-path="url(#pb81547de9e)">
     <use style="fill:#dd8452;stroke:#dd8452;stroke-width:2;" x="430.554937" xlink:href="#md3a135c7ff" y="73.913025"/>
     <use style="fill:#dd8452;stroke:#dd8452;stroke-width:2;" x="519.836493" xlink:href="#md3a135c7ff" y="199.670547"/>
     <use style="fill:#dd8452;stroke:#dd8452;stroke-width:2;" x="609.11805" xlink:href="#md3a135c7ff" y="270.059853"/>
     <use style="fill:#dd8452;stroke:#dd8452;stroke-width:2;" x="698.399606" xlink:href="#md3a135c7ff" y="293.343469"/>
    </g>
   </g>
   <g id="line2d_38">
    <g clip-path="url(#pb81547de9e)">
     <use style="fill:#dd8452;stroke:#dd8452;stroke-width:2;" x="430.554937" xlink:href="#md3a135c7ff" y="38.263469"/>
     <use style="fill:#dd8452;stroke:#dd8452;stroke-width:2;" x="519.836493" xlink:href="#md3a135c7ff" y="193.654684"/>
     <use style="fill:#dd8452;stroke:#dd8452;stroke-width:2;" x="609.11805" xlink:href="#md3a135c7ff" y="268.38878"/>
     <use style="fill:#dd8452;stroke:#dd8452;stroke-width:2;" x="698.399606" xlink:href="#md3a135c7ff" y="292.15515"/>
    </g>
   </g>
   <g id="line2d_39"/>
   <g id="line2d_40"/>
   <g id="patch_7">
    <path d="M 417.162703 306.097469 
L 417.162703 25.509469 
" style="fill:none;stroke:#ffffff;stroke-linecap:square;stroke-linejoin:miter;stroke-width:1.875;"/>
   </g>
   <g id="patch_8">
    <path d="M 417.162703 306.097469 
L 711.791839 306.097469 
" style="fill:none;stroke:#ffffff;stroke-linecap:square;stroke-linejoin:miter;stroke-width:1.875;"/>
   </g>
   <g id="text_26">
    <!-- Hidden Size = 32 -->
    <g style="fill:#262626;" transform="translate(494.28824 19.509469)scale(0.162 -0.162)">
     <use xlink:href="#DejaVuSans-72"/>
     <use x="75.195312" xlink:href="#DejaVuSans-105"/>
     <use x="102.978516" xlink:href="#DejaVuSans-100"/>
     <use x="166.455078" xlink:href="#DejaVuSans-100"/>
     <use x="229.931641" xlink:href="#DejaVuSans-101"/>
     <use x="291.455078" xlink:href="#DejaVuSans-110"/>
     <use x="354.833984" xlink:href="#DejaVuSans-32"/>
     <use x="386.621094" xlink:href="#DejaVuSans-83"/>
     <use x="450.097656" xlink:href="#DejaVuSans-105"/>
     <use x="477.880859" xlink:href="#DejaVuSans-122"/>
     <use x="530.371094" xlink:href="#DejaVuSans-101"/>
     <use x="591.894531" xlink:href="#DejaVuSans-32"/>
     <use x="623.681641" xlink:href="#DejaVuSans-61"/>
     <use x="707.470703" xlink:href="#DejaVuSans-32"/>
     <use x="739.257812" xlink:href="#DejaVuSans-51"/>
     <use x="802.880859" xlink:href="#DejaVuSans-50"/>
    </g>
   </g>
  </g>
  <g id="axes_3">
   <g id="patch_9">
    <path d="M 771.330703 306.097469 
L 1065.959839 306.097469 
L 1065.959839 25.509469 
L 771.330703 25.509469 
z
" style="fill:#eaeaf2;"/>
   </g>
   <g id="matplotlib.axis_5">
    <g id="xtick_57">
     <g id="line2d_41">
      <path clip-path="url(#pbf15317cf0)" d="M 784.722937 306.097469 
L 784.722937 25.509469 
" style="fill:none;stroke:#ffffff;stroke-linecap:round;stroke-width:1.5;"/>
     </g>
     <g id="text_27">
      <!-- 6 -->
      <g style="fill:#262626;" transform="translate(779.99878 329.881148)scale(0.1485 -0.1485)">
       <use xlink:href="#DejaVuSans-54"/>
      </g>
     </g>
    </g>
    <g id="xtick_58">
     <g id="line2d_42">
      <path clip-path="url(#pbf15317cf0)" d="M 874.004493 306.097469 
L 874.004493 25.509469 
" style="fill:none;stroke:#ffffff;stroke-linecap:round;stroke-width:1.5;"/>
     </g>
     <g id="text_28">
      <!-- 60 -->
      <g style="fill:#262626;" transform="translate(864.556181 329.881148)scale(0.1485 -0.1485)">
       <use xlink:href="#DejaVuSans-54"/>
       <use x="63.623047" xlink:href="#DejaVuSans-48"/>
      </g>
     </g>
    </g>
    <g id="xtick_59">
     <g id="line2d_43">
      <path clip-path="url(#pbf15317cf0)" d="M 963.28605 306.097469 
L 963.28605 25.509469 
" style="fill:none;stroke:#ffffff;stroke-linecap:round;stroke-width:1.5;"/>
     </g>
     <g id="text_29">
      <!-- 600 -->
      <g style="fill:#262626;" transform="translate(949.113581 329.881148)scale(0.1485 -0.1485)">
       <use xlink:href="#DejaVuSans-54"/>
       <use x="63.623047" xlink:href="#DejaVuSans-48"/>
       <use x="127.246094" xlink:href="#DejaVuSans-48"/>
      </g>
     </g>
    </g>
    <g id="xtick_60">
     <g id="line2d_44">
      <path clip-path="url(#pbf15317cf0)" d="M 1052.567606 306.097469 
L 1052.567606 25.509469 
" style="fill:none;stroke:#ffffff;stroke-linecap:round;stroke-width:1.5;"/>
     </g>
     <g id="text_30">
      <!-- 6000 -->
      <g style="fill:#262626;" transform="translate(1033.670981 329.881148)scale(0.1485 -0.1485)">
       <use xlink:href="#DejaVuSans-54"/>
       <use x="63.623047" xlink:href="#DejaVuSans-48"/>
       <use x="127.246094" xlink:href="#DejaVuSans-48"/>
       <use x="190.869141" xlink:href="#DejaVuSans-48"/>
      </g>
     </g>
    </g>
    <g id="xtick_61"/>
    <g id="xtick_62"/>
    <g id="xtick_63"/>
    <g id="xtick_64"/>
    <g id="xtick_65"/>
    <g id="xtick_66"/>
    <g id="xtick_67"/>
    <g id="xtick_68"/>
    <g id="xtick_69"/>
    <g id="xtick_70"/>
    <g id="xtick_71"/>
    <g id="xtick_72"/>
    <g id="xtick_73"/>
    <g id="xtick_74"/>
    <g id="xtick_75"/>
    <g id="xtick_76"/>
    <g id="xtick_77"/>
    <g id="xtick_78"/>
    <g id="xtick_79"/>
    <g id="xtick_80"/>
    <g id="xtick_81"/>
    <g id="xtick_82"/>
    <g id="xtick_83"/>
    <g id="xtick_84"/>
    <g id="text_31">
     <!-- Datapoints Per Class -->
     <g style="fill:#262626;" transform="translate(834.776099 349.278953)scale(0.162 -0.162)">
      <use xlink:href="#DejaVuSans-68"/>
      <use x="77.001953" xlink:href="#DejaVuSans-97"/>
      <use x="138.28125" xlink:href="#DejaVuSans-116"/>
      <use x="177.490234" xlink:href="#DejaVuSans-97"/>
      <use x="238.769531" xlink:href="#DejaVuSans-112"/>
      <use x="302.246094" xlink:href="#DejaVuSans-111"/>
      <use x="363.427734" xlink:href="#DejaVuSans-105"/>
      <use x="391.210938" xlink:href="#DejaVuSans-110"/>
      <use x="454.589844" xlink:href="#DejaVuSans-116"/>
      <use x="493.798828" xlink:href="#DejaVuSans-115"/>
      <use x="545.898438" xlink:href="#DejaVuSans-32"/>
      <use x="577.685547" xlink:href="#DejaVuSans-80"/>
      <use x="637.941406" xlink:href="#DejaVuSans-101"/>
      <use x="699.464844" xlink:href="#DejaVuSans-114"/>
      <use x="740.578125" xlink:href="#DejaVuSans-32"/>
      <use x="772.365234" xlink:href="#DejaVuSans-67"/>
      <use x="842.189453" xlink:href="#DejaVuSans-108"/>
      <use x="869.972656" xlink:href="#DejaVuSans-97"/>
      <use x="931.251953" xlink:href="#DejaVuSans-115"/>
      <use x="983.351562" xlink:href="#DejaVuSans-115"/>
     </g>
    </g>
   </g>
   <g id="matplotlib.axis_6">
    <g id="ytick_11">
     <g id="line2d_45">
      <path clip-path="url(#pbf15317cf0)" d="M 771.330703 255.821948 
L 1065.959839 255.821948 
" style="fill:none;stroke:#ffffff;stroke-linecap:round;stroke-width:1.5;"/>
     </g>
     <g id="text_32">
      <!-- 0.2 -->
      <g style="fill:#262626;" transform="translate(735.214563 261.463788)scale(0.1485 -0.1485)">
       <use xlink:href="#DejaVuSans-48"/>
       <use x="63.623047" xlink:href="#DejaVuSans-46"/>
       <use x="95.410156" xlink:href="#DejaVuSans-50"/>
      </g>
     </g>
    </g>
    <g id="ytick_12">
     <g id="line2d_46">
      <path clip-path="url(#pbf15317cf0)" d="M 771.330703 197.286034 
L 1065.959839 197.286034 
" style="fill:none;stroke:#ffffff;stroke-linecap:round;stroke-width:1.5;"/>
     </g>
     <g id="text_33">
      <!-- 0.3 -->
      <g style="fill:#262626;" transform="translate(735.214563 202.927874)scale(0.1485 -0.1485)">
       <use xlink:href="#DejaVuSans-48"/>
       <use x="63.623047" xlink:href="#DejaVuSans-46"/>
       <use x="95.410156" xlink:href="#DejaVuSans-51"/>
      </g>
     </g>
    </g>
    <g id="ytick_13">
     <g id="line2d_47">
      <path clip-path="url(#pbf15317cf0)" d="M 771.330703 138.750121 
L 1065.959839 138.750121 
" style="fill:none;stroke:#ffffff;stroke-linecap:round;stroke-width:1.5;"/>
     </g>
     <g id="text_34">
      <!-- 0.4 -->
      <g style="fill:#262626;" transform="translate(735.214563 144.39196)scale(0.1485 -0.1485)">
       <use xlink:href="#DejaVuSans-48"/>
       <use x="63.623047" xlink:href="#DejaVuSans-46"/>
       <use x="95.410156" xlink:href="#DejaVuSans-52"/>
      </g>
     </g>
    </g>
    <g id="ytick_14">
     <g id="line2d_48">
      <path clip-path="url(#pbf15317cf0)" d="M 771.330703 80.214207 
L 1065.959839 80.214207 
" style="fill:none;stroke:#ffffff;stroke-linecap:round;stroke-width:1.5;"/>
     </g>
     <g id="text_35">
      <!-- 0.5 -->
      <g style="fill:#262626;" transform="translate(735.214563 85.856047)scale(0.1485 -0.1485)">
       <use xlink:href="#DejaVuSans-48"/>
       <use x="63.623047" xlink:href="#DejaVuSans-46"/>
       <use x="95.410156" xlink:href="#DejaVuSans-53"/>
      </g>
     </g>
    </g>
   </g>
   <g id="LineCollection_5">
    <path clip-path="url(#pbf15317cf0)" d="M 784.722937 79.45324 
L 784.722937 54.282797 
" style="fill:none;stroke:#4c72b0;stroke-linecap:round;stroke-width:2.25;"/>
    <path clip-path="url(#pbf15317cf0)" d="M 874.004493 203.256698 
L 874.004493 197.24701 
" style="fill:none;stroke:#4c72b0;stroke-linecap:round;stroke-width:2.25;"/>
    <path clip-path="url(#pbf15317cf0)" d="M 963.28605 264.797455 
L 963.28605 263.353569 
" style="fill:none;stroke:#4c72b0;stroke-linecap:round;stroke-width:2.25;"/>
    <path clip-path="url(#pbf15317cf0)" d="M 1052.567606 288.816691 
L 1052.567606 284.485034 
" style="fill:none;stroke:#4c72b0;stroke-linecap:round;stroke-width:2.25;"/>
   </g>
   <g id="LineCollection_6">
    <path clip-path="url(#pbf15317cf0)" d="M 784.722937 68.507024 
L 784.722937 38.263469 
" style="fill:none;stroke:#dd8452;stroke-linecap:round;stroke-width:2.25;"/>
    <path clip-path="url(#pbf15317cf0)" d="M 874.004493 187.920288 
L 874.004493 179.608188 
" style="fill:none;stroke:#dd8452;stroke-linecap:round;stroke-width:2.25;"/>
    <path clip-path="url(#pbf15317cf0)" d="M 963.28605 256.582915 
L 963.28605 254.670742 
" style="fill:none;stroke:#dd8452;stroke-linecap:round;stroke-width:2.25;"/>
    <path clip-path="url(#pbf15317cf0)" d="M 1052.567606 293.343469 
L 1052.567606 292.484942 
" style="fill:none;stroke:#dd8452;stroke-linecap:round;stroke-width:2.25;"/>
   </g>
   <g id="line2d_49">
    <path clip-path="url(#pbf15317cf0)" d="M 784.722937 66.868019 
L 874.004493 200.251854 
L 963.28605 264.075512 
L 1052.567606 286.650863 
" style="fill:none;stroke:#4c72b0;stroke-linecap:round;stroke-width:2.25;"/>
    <g clip-path="url(#pbf15317cf0)">
     <use style="fill:#4c72b0;stroke:#ffffff;stroke-width:0.75;" x="784.722937" xlink:href="#m7b987b23b6" y="66.868019"/>
     <use style="fill:#4c72b0;stroke:#ffffff;stroke-width:0.75;" x="874.004493" xlink:href="#m7b987b23b6" y="200.251854"/>
     <use style="fill:#4c72b0;stroke:#ffffff;stroke-width:0.75;" x="963.28605" xlink:href="#m7b987b23b6" y="264.075512"/>
     <use style="fill:#4c72b0;stroke:#ffffff;stroke-width:0.75;" x="1052.567606" xlink:href="#m7b987b23b6" y="286.650863"/>
    </g>
   </g>
   <g id="line2d_50">
    <g clip-path="url(#pbf15317cf0)">
     <use style="fill:#4c72b0;stroke:#4c72b0;stroke-width:2;" x="784.722937" xlink:href="#mb6b9f8e9bf" y="79.45324"/>
     <use style="fill:#4c72b0;stroke:#4c72b0;stroke-width:2;" x="874.004493" xlink:href="#mb6b9f8e9bf" y="203.256698"/>
     <use style="fill:#4c72b0;stroke:#4c72b0;stroke-width:2;" x="963.28605" xlink:href="#mb6b9f8e9bf" y="264.797455"/>
     <use style="fill:#4c72b0;stroke:#4c72b0;stroke-width:2;" x="1052.567606" xlink:href="#mb6b9f8e9bf" y="288.816691"/>
    </g>
   </g>
   <g id="line2d_51">
    <g clip-path="url(#pbf15317cf0)">
     <use style="fill:#4c72b0;stroke:#4c72b0;stroke-width:2;" x="784.722937" xlink:href="#mb6b9f8e9bf" y="54.282797"/>
     <use style="fill:#4c72b0;stroke:#4c72b0;stroke-width:2;" x="874.004493" xlink:href="#mb6b9f8e9bf" y="197.24701"/>
     <use style="fill:#4c72b0;stroke:#4c72b0;stroke-width:2;" x="963.28605" xlink:href="#mb6b9f8e9bf" y="263.353569"/>
     <use style="fill:#4c72b0;stroke:#4c72b0;stroke-width:2;" x="1052.567606" xlink:href="#mb6b9f8e9bf" y="284.485034"/>
    </g>
   </g>
   <g id="line2d_52">
    <path clip-path="url(#pbf15317cf0)" d="M 784.722937 53.385246 
L 874.004493 183.764238 
L 963.28605 255.626828 
L 1052.567606 292.914205 
" style="fill:none;stroke:#dd8452;stroke-dasharray:9,3.375;stroke-dashoffset:0;stroke-width:2.25;"/>
    <g clip-path="url(#pbf15317cf0)">
     <use style="fill:#dd8452;stroke:#ffffff;stroke-linejoin:miter;stroke-width:0.75;" x="784.722937" xlink:href="#m8a89247e6c" y="53.385246"/>
     <use style="fill:#dd8452;stroke:#ffffff;stroke-linejoin:miter;stroke-width:0.75;" x="874.004493" xlink:href="#m8a89247e6c" y="183.764238"/>
     <use style="fill:#dd8452;stroke:#ffffff;stroke-linejoin:miter;stroke-width:0.75;" x="963.28605" xlink:href="#m8a89247e6c" y="255.626828"/>
     <use style="fill:#dd8452;stroke:#ffffff;stroke-linejoin:miter;stroke-width:0.75;" x="1052.567606" xlink:href="#m8a89247e6c" y="292.914205"/>
    </g>
   </g>
   <g id="line2d_53">
    <g clip-path="url(#pbf15317cf0)">
     <use style="fill:#dd8452;stroke:#dd8452;stroke-width:2;" x="784.722937" xlink:href="#md3a135c7ff" y="68.507024"/>
     <use style="fill:#dd8452;stroke:#dd8452;stroke-width:2;" x="874.004493" xlink:href="#md3a135c7ff" y="187.920288"/>
     <use style="fill:#dd8452;stroke:#dd8452;stroke-width:2;" x="963.28605" xlink:href="#md3a135c7ff" y="256.582915"/>
     <use style="fill:#dd8452;stroke:#dd8452;stroke-width:2;" x="1052.567606" xlink:href="#md3a135c7ff" y="293.343469"/>
    </g>
   </g>
   <g id="line2d_54">
    <g clip-path="url(#pbf15317cf0)">
     <use style="fill:#dd8452;stroke:#dd8452;stroke-width:2;" x="784.722937" xlink:href="#md3a135c7ff" y="38.263469"/>
     <use style="fill:#dd8452;stroke:#dd8452;stroke-width:2;" x="874.004493" xlink:href="#md3a135c7ff" y="179.608188"/>
     <use style="fill:#dd8452;stroke:#dd8452;stroke-width:2;" x="963.28605" xlink:href="#md3a135c7ff" y="254.670742"/>
     <use style="fill:#dd8452;stroke:#dd8452;stroke-width:2;" x="1052.567606" xlink:href="#md3a135c7ff" y="292.484942"/>
    </g>
   </g>
   <g id="line2d_55"/>
   <g id="line2d_56"/>
   <g id="patch_10">
    <path d="M 771.330703 306.097469 
L 771.330703 25.509469 
" style="fill:none;stroke:#ffffff;stroke-linecap:square;stroke-linejoin:miter;stroke-width:1.875;"/>
   </g>
   <g id="patch_11">
    <path d="M 771.330703 306.097469 
L 1065.959839 306.097469 
" style="fill:none;stroke:#ffffff;stroke-linecap:square;stroke-linejoin:miter;stroke-width:1.875;"/>
   </g>
   <g id="text_36">
    <!-- Hidden Size = 128 -->
    <defs>
     <path d="M 12.40625 8.296875 
L 28.515625 8.296875 
L 28.515625 63.921875 
L 10.984375 60.40625 
L 10.984375 69.390625 
L 28.421875 72.90625 
L 38.28125 72.90625 
L 38.28125 8.296875 
L 54.390625 8.296875 
L 54.390625 0 
L 12.40625 0 
z
" id="DejaVuSans-49"/>
    </defs>
    <g style="fill:#262626;" transform="translate(843.302615 19.509469)scale(0.162 -0.162)">
     <use xlink:href="#DejaVuSans-72"/>
     <use x="75.195312" xlink:href="#DejaVuSans-105"/>
     <use x="102.978516" xlink:href="#DejaVuSans-100"/>
     <use x="166.455078" xlink:href="#DejaVuSans-100"/>
     <use x="229.931641" xlink:href="#DejaVuSans-101"/>
     <use x="291.455078" xlink:href="#DejaVuSans-110"/>
     <use x="354.833984" xlink:href="#DejaVuSans-32"/>
     <use x="386.621094" xlink:href="#DejaVuSans-83"/>
     <use x="450.097656" xlink:href="#DejaVuSans-105"/>
     <use x="477.880859" xlink:href="#DejaVuSans-122"/>
     <use x="530.371094" xlink:href="#DejaVuSans-101"/>
     <use x="591.894531" xlink:href="#DejaVuSans-32"/>
     <use x="623.681641" xlink:href="#DejaVuSans-61"/>
     <use x="707.470703" xlink:href="#DejaVuSans-32"/>
     <use x="739.257812" xlink:href="#DejaVuSans-49"/>
     <use x="802.880859" xlink:href="#DejaVuSans-50"/>
     <use x="866.503906" xlink:href="#DejaVuSans-56"/>
    </g>
   </g>
  </g>
 </g>
 <defs>
  <clipPath id="p8793c9a856">
   <rect height="280.588" width="294.629136" x="62.994703" y="25.509469"/>
  </clipPath>
  <clipPath id="pb81547de9e">
   <rect height="280.588" width="294.629136" x="417.162703" y="25.509469"/>
  </clipPath>
  <clipPath id="pbf15317cf0">
   <rect height="280.588" width="294.629136" x="771.330703" y="25.509469"/>
  </clipPath>
 </defs>
</svg>
